<?xml version="1.0" encoding="iso-8859-1"?>
<!-- Uploaded to: SVG Repo, www.svgrepo.com, Generator: SVG Repo Mixer Tools -->
<svg height="800px" width="800px" version="1.1" id="Layer_1" xmlns="http://www.w3.org/2000/svg" xmlns:xlink="http://www.w3.org/1999/xlink" 
	 viewBox="0 0 512 512" xml:space="preserve">
<circle style="fill:#006775;" cx="255.915" cy="255.916" r="255.915"/>
<path style="fill:#055661;" d="M236.472,166.437l-40.044-40.044L58.665,209.283l141.553,141.553l-60.642,36.418l124.745,124.745
	C401.756,507.551,512,394.834,512,256.247c0-6.921-0.329-13.678-0.824-20.269l-98.709-98.709l-13.018,13.018L366.161,117
	l-35.265,35.265l-40.044-40.044l-54.38,54.38V166.437z"/>
<path style="fill:#E84F4F;" d="M294.313,267.948c0.329,0.329,0.494,0.494,0.824,0.824c4.944,5.273,14.007,17.467,16.314,37.571
	c3.131,28.015-8.57,43.01-8.57,43.01c5.273,2.307,9.723,2.801,13.513,1.319c0,0,9.228-18.126,1.813-47.789
	c-5.932-23.73-17.303-34.441-21.752-37.737c0-0.165,0-0.165,0-0.329c0-1.813-1.484-3.131-3.131-3.131
	c-1.813,0-3.131,1.483-3.131,3.131c0,1.813,1.483,3.131,3.131,3.131c0.329,0,0.659,0,0.988-0.165v0.164H294.313z"/>
<g>
	<path style="fill:#38C20E;" d="M292.335,263.498c0,0-28.344-8.57-33.452,2.637c-5.108,11.206-7.745,20.269-7.745,20.269
		l7.415-9.887l0.165,3.955l7.745-8.404l-0.329,2.472l9.228-7.251l-0.329,2.801l17.632-4.614L292.335,263.498z"/>
	<path style="fill:#38C20E;" d="M293.654,262.839c0,0,23.895-15.985,30.651-13.347c6.757,2.801,15.655,13.018,15.655,13.018
		l-10.876-4.614l1.483,3.295l-10.381-3.295l1.319,1.978l-11.206-1.648l1.483,2.142l-17.467,4.285l-0.494-1.813L293.654,262.839
		L293.654,262.839z"/>
	<path style="fill:#38C20E;" d="M293.489,264.487c0,0,18.292-5.273,28.838,2.637c10.546,7.91,12.524,17.303,12.524,17.303
		c-4.449-2.966-7.251-7.086-13.183-8.734l0.988,4.614l-9.228-8.404v3.131l-7.58-5.108v2.966l-9.064-5.108
		c0,0-4.944-1.813-3.295-3.46V264.487z"/>
	<path style="fill:#38C20E;" d="M292.006,264.652c0,0-18.457,4.944-23.4,17.138c-4.944,12.194-1.813,21.423-1.813,21.423
		c2.307-4.779,2.472-9.723,6.757-14.337l1.648,4.449l3.625-12.03l1.648,2.637l3.791-8.404l1.483,2.637l5.108-9.064
		c0,0,3.295-4.12,1.154-4.614L292.006,264.652L292.006,264.652z"/>
	<path style="fill:#38C20E;" d="M292.335,261.85c0,0-10.546-19.116-14.172-19.116s-16.644,13.018-16.644,13.018l-2.637,5.932
		l9.228-6.098v3.295l8.57-5.438l-0.165,2.801c0,0,3.295-1.483,6.921,1.319c3.625,2.801,8.569,6.098,8.569,6.098l1.153-0.824
		l-1.153-0.988h0.331V261.85z"/>
	<path style="fill:#38C20E;" d="M297.445,240.922c-2.637,2.637-4.285,16.809-4.449,22.246c0,1.648,0.824,0.329,0.824,0.329
		s1.978-8.404,4.779-8.734c2.637-0.494,4.285,1.648,4.285,1.648l-1.813-4.944c4.285-0.659,8.404,0.494,8.239,0.165l-2.472-3.295
		l9.064,1.648c-1.978-4.285-15.16-12.03-18.292-8.899L297.445,240.922z"/>
</g>
<circle style="fill:#27A600;" cx="293.491" cy="264.319" r="3.625"/>
<ellipse transform="matrix(-0.9773 0.212 -0.212 -0.9773 638.149 478.9432)" style="fill:#D7680F;" cx="293.4" cy="273.681" rx="3.232" ry="3.684"/>
<ellipse transform="matrix(-0.9773 0.212 -0.212 -0.9773 636.1414 477.8709)" style="fill:#E59C0B;" cx="292.453" cy="273.037" rx="1.505" ry="1.714"/>
<ellipse transform="matrix(-0.9773 0.212 -0.212 -0.9773 643.0402 468.4945)" style="fill:#D7680F;" cx="296.405" cy="268.719" rx="3.232" ry="3.684"/>
<ellipse transform="matrix(-0.9773 0.212 -0.212 -0.9773 641.0515 467.416)" style="fill:#E59C0B;" cx="295.469" cy="268.073" rx="1.505" ry="1.714"/>
<ellipse transform="matrix(-0.97 -0.2432 0.2432 -0.97 505.7172 599.7708)" style="fill:#D7680F;" cx="289.88" cy="268.67" rx="3.232" ry="3.684"/>
<ellipse transform="matrix(-0.97 -0.2432 0.2432 -0.97 504.8679 597.6706)" style="fill:#E59C0B;" cx="289.325" cy="267.672" rx="1.505" ry="1.714"/>
<path style="fill:#FAC014;" d="M287.722,332.215c71.518,0,131.501,23.236,148.145,54.71h-296.29
	C156.22,355.451,216.203,332.215,287.722,332.215z"/>
<path style="fill:#E84F4F;" d="M322.492,166.767c0.659,0.659,1.154,1.319,1.978,1.978c11.535,12.194,32.794,40.868,38.231,88.162
	c7.415,65.751-19.939,100.686-19.939,100.686c12.194,5.273,22.905,6.757,31.804,3.295c0,0,21.587-42.516,4.285-112.056
	c-13.843-55.534-40.703-80.746-50.92-88.491c0-0.165,0-0.494,0-0.659c0-4.12-3.295-7.58-7.58-7.58c-4.12,0-7.58,3.295-7.58,7.58
	c0,4.12,3.295,7.58,7.58,7.58c0.824,0,1.484-0.165,2.142-0.329V166.767z"/>
<g>
	<path style="fill:#38C20E;" d="M317.713,156.385c0,0-66.41-19.939-78.275,6.262c-11.865,26.201-18.292,47.46-18.292,47.46
		l17.467-23.236l0.494,9.064l18.126-19.61l-0.659,5.767l21.587-16.809l-0.659,6.427l41.197-10.876L317.713,156.385z"/>
	<path style="fill:#38C20E;" d="M321.009,154.737c0,0,56.028-37.571,71.848-31.145c15.654,6.427,36.583,30.321,36.583,30.321
		l-25.377-11.041l3.625,7.745l-24.389-7.58l3.131,4.449l-26.366-3.791l3.295,4.944l-41.033,10.052l-1.153-4.12L321.009,154.737z"/>
	<path style="fill:#38C20E;" d="M320.35,158.857c0,0,42.846-12.524,67.728,5.932s29.497,40.703,29.497,40.703
		c-10.217-6.757-16.809-16.644-30.816-20.433l2.307,11.041l-21.587-19.61l-0.165,7.415l-17.797-12.03l0.165,6.921l-21.258-11.865
		c0,0-11.7-4.449-7.91-7.91L320.35,158.857z"/>
	<path style="fill:#38C20E;" d="M316.89,159.187c0,0-43.175,11.535-54.71,40.209c-11.7,28.673-4.12,50.096-4.12,50.096
		c5.273-11.206,5.767-22.905,15.82-33.452l3.791,10.546l8.239-28.015l3.955,6.262l8.899-19.61l3.46,6.098l12.03-21.258
		C314.252,170.063,321.998,160.341,316.89,159.187z"/>
	<path style="fill:#38C20E;" d="M317.878,152.43c0,0-24.883-44.657-33.288-44.657c-8.57,0-38.89,30.486-38.89,30.486l-6.098,14.007
		l21.587-14.337v7.745l20.104-12.853l-0.165,6.427c0,0,7.745-3.46,16.15,2.966c8.569,6.427,20.269,14.337,20.269,14.337l2.801-1.813
		l-2.637-2.142L317.878,152.43z"/>
	<path style="fill:#38C20E;" d="M329.578,103.323c-6.427,6.427-10.217,39.384-10.546,52.239c-0.165,3.955,1.978,0.988,1.978,0.988
		s4.779-19.61,11.041-20.598c6.262-0.988,10.052,3.955,10.052,3.955l-4.449-11.7c10.217-1.648,19.939,1.319,19.28,0.494l-5.603-7.91
		l21.258,3.791c-4.614-10.052-35.759-28.344-43.01-20.929V103.323z"/>
</g>
<circle style="fill:#27A600;" cx="320.352" cy="158.196" r="8.57"/>
<ellipse transform="matrix(-0.9773 0.212 -0.212 -0.9773 671.4603 288.4486)" style="fill:#D7680F;" cx="320.267" cy="180.22" rx="7.579" ry="8.637"/>
<ellipse transform="matrix(-0.9773 0.212 -0.212 -0.9773 666.7897 285.9285)" style="fill:#E59C0B;" cx="318.067" cy="178.709" rx="3.528" ry="4.022"/>
<ellipse transform="matrix(-0.9773 0.212 -0.212 -0.9773 682.9541 263.9541)" style="fill:#D7680F;" cx="327.327" cy="168.589" rx="7.579" ry="8.637"/>
<ellipse transform="matrix(-0.9773 0.212 -0.212 -0.9773 678.2834 261.434)" style="fill:#E59C0B;" cx="325.127" cy="167.078" rx="3.528" ry="4.022"/>
<ellipse transform="matrix(-0.97 -0.2432 0.2432 -0.97 573.7452 407.7781)" style="fill:#D7680F;" cx="312.043" cy="168.475" rx="7.579" ry="8.637"/>
<ellipse transform="matrix(-0.97 -0.2432 0.2432 -0.97 571.7352 402.8568)" style="fill:#E59C0B;" cx="310.734" cy="166.138" rx="3.528" ry="4.022"/>
<circle style="fill:#FAC014;" cx="166.439" cy="150.452" r="38.396"/>
<path style="fill:#BAE6FF;" d="M112.551,158.034c12.689,0,23.4,7.745,28.015,18.786c2.142-0.659,4.614-0.988,6.921-0.988
	c7.745,0,14.666,3.791,18.786,9.723c3.295-4.449,8.734-7.415,14.666-7.415c7.745,0,14.172,4.779,16.973,11.371
	c1.319-0.494,2.801-0.659,4.285-0.659c7.745,0,14.007,6.262,14.007,14.007c0,2.307-0.494,4.285-1.483,6.262h-46.635h-19.939H58.5
	c-0.659-2.142-1.153-4.614-1.153-7.086c0-12.194,9.887-22.246,22.246-22.246c1.319,0,2.472,0.165,3.791,0.329
	C86.844,167.426,98.544,158.034,112.551,158.034z"/>
</svg>